<?xml version="1.0" encoding="UTF-8" standalone="no"?><!-- Created with Inkscape (http://www.inkscape.org/) -->

<svg xmlns:cc="http://creativecommons.org/ns#" xmlns:dc="http://purl.org/dc/elements/1.1/"
    xmlns:inkscape="http://www.inkscape.org/namespaces/inkscape"
    xmlns:rdf="http://www.w3.org/1999/02/22-rdf-syntax-ns#"
    xmlns:sodipodi="http://sodipodi.sourceforge.net/DTD/sodipodi-0.dtd" height="299.67419" id="svg2"
    version="1.1" viewBox="0 0 299.98226 299.6742" width="299.98224"
    xmlns="http://www.w3.org/2000/svg"
    inkscape:export-filename="/home/marvin/Development/IDEA/microg_gradle_build_root/play-services-core/src/main/res/drawable-xxhdpi/ic_gamepad.png"
    inkscape:export-xdpi="43.202557" inkscape:export-ydpi="43.202557" inkscape:version="0.91 r13725"
    sodipodi:docname="ic_gamepad.svg">
    <defs id="defs4">
        <filter style="color-interpolation-filters:sRGB;" height="2" id="filter4067" width="2"
            x="-0.5" y="-0.5" inkscape:label="Drop Shadow">
            <feFlood flood-color="rgb(0,0,0)" flood-opacity="1" id="feFlood4069" result="flood" />
            <feComposite id="feComposite4071" in="flood" in2="SourceGraphic" operator="in"
                result="composite1" />
            <feGaussianBlur id="feGaussianBlur4073" in="composite" result="blur" stdDeviation="6" />
            <feComponentTransfer id="feComponentTransfer13">
                <feFuncA id="feFuncA15" slope="0.2" type="linear" />
            </feComponentTransfer>
            <feOffset dx="0" dy="6" id="feOffset4075" result="offset" stdDeviation="8" />
            <feComposite id="feComposite4077" in="SourceGraphic" in2="offset" operator="over"
                result="composite2" />
        </filter>
        <clipPath clipPathUnits="userSpaceOnUse" id="clipPath4266">
            <path
                style="opacity:1;fill:#000000;fill-opacity:1;stroke:none;stroke-width:30;stroke-linecap:butt;stroke-miterlimit:4;stroke-dasharray:none;stroke-dashoffset:0;stroke-opacity:1"
                d="m 354.99922,92.361314 c -29.48241,0 -53.85,21.058586 -58.98632,49.011716 l -0.0234,-0.004 -19.10156,108.32813 a 24.999997,24.999997 0 0 0 20.27929,28.96094 24.999997,24.999997 0 0 0 22.00977,-6.94922 l 0.01,0.008 0.19141,-0.19336 44.16406,-44.16211 102.91407,0 44.16406,44.16211 0.1914,0.19336 0.0117,-0.008 a 24.999997,24.999997 0 0 0 22.00782,6.94922 24.999997,24.999997 0 0 0 20.27929,-28.96094 l -19.09961,-108.32813 -0.004,0 -0.0195,0.004 C 528.85138,113.4199 504.48183,92.361314 474.99941,92.361314 l -119.99804,0 -0.002,0 z"
                id="path4268" inkscape:connector-curvature="0" />
        </clipPath>
        <clipPath clipPathUnits="userSpaceOnUse" id="clipPath4270">
            <path
                style="opacity:1;fill:#000000;fill-opacity:1;stroke:none;stroke-width:30;stroke-linecap:butt;stroke-miterlimit:4;stroke-dasharray:none;stroke-dashoffset:0;stroke-opacity:1"
                d="m 354.99922,92.361314 c -29.48241,0 -53.85,21.058586 -58.98632,49.011716 l -0.0234,-0.004 -19.10156,108.32813 a 24.999997,24.999997 0 0 0 20.27929,28.96094 24.999997,24.999997 0 0 0 22.00977,-6.94922 l 0.01,0.008 0.19141,-0.19336 44.16406,-44.16211 102.91407,0 44.16406,44.16211 0.1914,0.19336 0.0117,-0.008 a 24.999997,24.999997 0 0 0 22.00782,6.94922 24.999997,24.999997 0 0 0 20.27929,-28.96094 l -19.09961,-108.32813 -0.004,0 -0.0195,0.004 C 528.85138,113.4199 504.48183,92.361314 474.99941,92.361314 l -119.99804,0 -0.002,0 z"
                id="path4272" inkscape:connector-curvature="0" />
        </clipPath>
        <clipPath clipPathUnits="userSpaceOnUse" id="clipPath4274">
            <path
                style="opacity:1;fill:#000000;fill-opacity:1;stroke:none;stroke-width:30;stroke-linecap:butt;stroke-miterlimit:4;stroke-dasharray:none;stroke-dashoffset:0;stroke-opacity:1"
                d="m 354.99922,92.361314 c -29.48241,0 -53.85,21.058586 -58.98632,49.011716 l -0.0234,-0.004 -19.10156,108.32813 a 24.999997,24.999997 0 0 0 20.27929,28.96094 24.999997,24.999997 0 0 0 22.00977,-6.94922 l 0.01,0.008 0.19141,-0.19336 44.16406,-44.16211 102.91407,0 44.16406,44.16211 0.1914,0.19336 0.0117,-0.008 a 24.999997,24.999997 0 0 0 22.00782,6.94922 24.999997,24.999997 0 0 0 20.27929,-28.96094 l -19.09961,-108.32813 -0.004,0 -0.0195,0.004 C 528.85138,113.4199 504.48183,92.361314 474.99941,92.361314 l -119.99804,0 -0.002,0 z"
                id="path4276" inkscape:connector-curvature="0" />
        </clipPath>
        <clipPath clipPathUnits="userSpaceOnUse" id="clipPath4278">
            <path
                style="opacity:1;fill:#000000;fill-opacity:1;stroke:none;stroke-width:30;stroke-linecap:butt;stroke-miterlimit:4;stroke-dasharray:none;stroke-dashoffset:0;stroke-opacity:1"
                d="m 354.99922,92.361314 c -29.48241,0 -53.85,21.058586 -58.98632,49.011716 l -0.0234,-0.004 -19.10156,108.32813 a 24.999997,24.999997 0 0 0 20.27929,28.96094 24.999997,24.999997 0 0 0 22.00977,-6.94922 l 0.01,0.008 0.19141,-0.19336 44.16406,-44.16211 102.91407,0 44.16406,44.16211 0.1914,0.19336 0.0117,-0.008 a 24.999997,24.999997 0 0 0 22.00782,6.94922 24.999997,24.999997 0 0 0 20.27929,-28.96094 l -19.09961,-108.32813 -0.004,0 -0.0195,0.004 C 528.85138,113.4199 504.48183,92.361314 474.99941,92.361314 l -119.99804,0 -0.002,0 z"
                id="path4280" inkscape:connector-curvature="0" />
        </clipPath>
        <clipPath clipPathUnits="userSpaceOnUse" id="clipPath4282">
            <path
                style="opacity:1;fill:#000000;fill-opacity:1;stroke:none;stroke-width:30;stroke-linecap:butt;stroke-miterlimit:4;stroke-dasharray:none;stroke-dashoffset:0;stroke-opacity:1"
                d="m 354.99922,92.361314 c -29.48241,0 -53.85,21.058586 -58.98632,49.011716 l -0.0234,-0.004 -19.10156,108.32813 a 24.999997,24.999997 0 0 0 20.27929,28.96094 24.999997,24.999997 0 0 0 22.00977,-6.94922 l 0.01,0.008 0.19141,-0.19336 44.16406,-44.16211 102.91407,0 44.16406,44.16211 0.1914,0.19336 0.0117,-0.008 a 24.999997,24.999997 0 0 0 22.00782,6.94922 24.999997,24.999997 0 0 0 20.27929,-28.96094 l -19.09961,-108.32813 -0.004,0 -0.0195,0.004 C 528.85138,113.4199 504.48183,92.361314 474.99941,92.361314 l -119.99804,0 -0.002,0 z"
                id="path4284" inkscape:connector-curvature="0" />
        </clipPath>
        <clipPath clipPathUnits="userSpaceOnUse" id="clipPath4286">
            <path
                style="opacity:1;fill:#000000;fill-opacity:1;stroke:none;stroke-width:30;stroke-linecap:butt;stroke-miterlimit:4;stroke-dasharray:none;stroke-dashoffset:0;stroke-opacity:1"
                d="m 354.99922,92.361314 c -29.48241,0 -53.85,21.058586 -58.98632,49.011716 l -0.0234,-0.004 -19.10156,108.32813 a 24.999997,24.999997 0 0 0 20.27929,28.96094 24.999997,24.999997 0 0 0 22.00977,-6.94922 l 0.01,0.008 0.19141,-0.19336 44.16406,-44.16211 102.91407,0 44.16406,44.16211 0.1914,0.19336 0.0117,-0.008 a 24.999997,24.999997 0 0 0 22.00782,6.94922 24.999997,24.999997 0 0 0 20.27929,-28.96094 l -19.09961,-108.32813 -0.004,0 -0.0195,0.004 C 528.85138,113.4199 504.48183,92.361314 474.99941,92.361314 l -119.99804,0 -0.002,0 z"
                id="path4288" inkscape:connector-curvature="0" />
        </clipPath>
        <clipPath clipPathUnits="userSpaceOnUse" id="clipPath4290">
            <path
                style="opacity:1;fill:#000000;fill-opacity:1;stroke:none;stroke-width:30;stroke-linecap:butt;stroke-miterlimit:4;stroke-dasharray:none;stroke-dashoffset:0;stroke-opacity:1"
                d="m 354.99922,92.361314 c -29.48241,0 -53.85,21.058586 -58.98632,49.011716 l -0.0234,-0.004 -19.10156,108.32813 a 24.999997,24.999997 0 0 0 20.27929,28.96094 24.999997,24.999997 0 0 0 22.00977,-6.94922 l 0.01,0.008 0.19141,-0.19336 44.16406,-44.16211 102.91407,0 44.16406,44.16211 0.1914,0.19336 0.0117,-0.008 a 24.999997,24.999997 0 0 0 22.00782,6.94922 24.999997,24.999997 0 0 0 20.27929,-28.96094 l -19.09961,-108.32813 -0.004,0 -0.0195,0.004 C 528.85138,113.4199 504.48183,92.361314 474.99941,92.361314 l -119.99804,0 -0.002,0 z"
                id="path4292" inkscape:connector-curvature="0" />
        </clipPath>
        <clipPath clipPathUnits="userSpaceOnUse" id="clipPath4294">
            <path
                style="opacity:1;fill:#000000;fill-opacity:1;stroke:none;stroke-width:30;stroke-linecap:butt;stroke-miterlimit:4;stroke-dasharray:none;stroke-dashoffset:0;stroke-opacity:1"
                d="m 354.99922,92.361314 c -29.48241,0 -53.85,21.058586 -58.98632,49.011716 l -0.0234,-0.004 -19.10156,108.32813 a 24.999997,24.999997 0 0 0 20.27929,28.96094 24.999997,24.999997 0 0 0 22.00977,-6.94922 l 0.01,0.008 0.19141,-0.19336 44.16406,-44.16211 102.91407,0 44.16406,44.16211 0.1914,0.19336 0.0117,-0.008 a 24.999997,24.999997 0 0 0 22.00782,6.94922 24.999997,24.999997 0 0 0 20.27929,-28.96094 l -19.09961,-108.32813 -0.004,0 -0.0195,0.004 C 528.85138,113.4199 504.48183,92.361314 474.99941,92.361314 l -119.99804,0 -0.002,0 z"
                id="path4296" inkscape:connector-curvature="0" />
        </clipPath>
    </defs>
    <sodipodi:namedview bordercolor="#666666" borderopacity="1.0" fit-margin-bottom="56.5"
        fit-margin-left="11.5" fit-margin-right="11.5" fit-margin-top="56.5" id="base"
        pagecolor="#ffffff" showgrid="false" units="px" inkscape:current-layer="layer1"
        inkscape:cx="177.50974" inkscape:cy="142.62777" inkscape:document-units="px"
        inkscape:pageopacity="0.0" inkscape:pageshadow="2" inkscape:window-height="1016"
        inkscape:window-maximized="1" inkscape:window-width="1920" inkscape:window-x="0"
        inkscape:window-y="27" inkscape:zoom="2" />
    <metadata id="metadata7">
        <rdf:RDF>
            <cc:Work rdf:about="">
                <dc:format>image/svg+xml</dc:format>
                <dc:type rdf:resource="http://purl.org/dc/dcmitype/StillImage" />
                <dc:title></dc:title>
            </cc:Work>
        </rdf:RDF>
    </metadata>
    <g id="layer1" transform="translate(-265.00899,-35.861337)" inkscape:groupmode="layer"
        inkscape:label="Layer 1">
        <path
            style="opacity:1;fill:#689f38;fill-opacity:1;stroke:none;stroke-width:30;stroke-linecap:butt;stroke-miterlimit:4;stroke-dasharray:none;stroke-dashoffset:0;stroke-opacity:1"
            clip-path="url(#clipPath4294)"
            d="m 534.00781,141.36914 -49.24023,8.68164 0.4082,2.31055 -190.17578,0 0,75 171.45703,0 44.16406,44.16211 0.19141,0.19336 0.01,-0.008 a 25,25 0 0 0 22.00976,6.94922 25,25 0 0 0 20.2793,-28.96093 L 534.01,141.36896 l -0.002,0 z"
            id="rect4154" inkscape:connector-curvature="0" />
        <path
            style="opacity:1;fill:#8bc34a;fill-opacity:1;stroke:none;stroke-width:30;stroke-linecap:butt;stroke-miterlimit:4;stroke-dasharray:none;stroke-dashoffset:0;stroke-opacity:1"
            clip-path="url(#clipPath4290)"
            d="m 355,92.361328 c -29.48242,0 -53.85001,21.058592 -58.98633,49.011722 l -0.0234,-0.004 -19.10156,108.32813 a 25,25 0 0 0 20.2793,28.96093 25,25 0 0 0 22.00976,-6.94922 l 0.008,0.008 0.1914,-0.19336 59.16407,-59.16211 96.45898,0 c 33.24,0 60,-26.76 60,-60 0,-33.24 -26.76,-60.000002 -60,-60.000002 l -120,0 z"
            id="rect4152" inkscape:connector-curvature="0" />
        <g clip-path="url(#clipPath4286)" id="g4210">
            <path
                style="opacity:1;fill:#ffffff;fill-opacity:1;stroke:none;stroke-width:30;stroke-linecap:butt;stroke-miterlimit:4;stroke-dasharray:none;stroke-dashoffset:0;stroke-opacity:1"
                d="m 349,122.36133 0,24 -24,0 0,16 24,0 0,24 16,0 0,-24 24,0 0,-16 -24,0 0,-24 -16,0 z"
                id="rect4147" inkscape:connector-curvature="0" />
            <g id="g4204">
                <circle
                    style="opacity:1;fill:#ffffff;fill-opacity:1;stroke:none;stroke-width:30;stroke-linecap:butt;stroke-miterlimit:4;stroke-dasharray:none;stroke-dashoffset:0;stroke-opacity:1"
                    cx="478" cy="174.3622" id="path4158" r="10" />
                <circle
                    style="opacity:1;fill:#ffffff;fill-opacity:1;stroke:none;stroke-width:30;stroke-linecap:butt;stroke-miterlimit:4;stroke-dasharray:none;stroke-dashoffset:0;stroke-opacity:1"
                    cx="478" cy="132.3622" id="circle4164" r="10" />
                <circle
                    style="opacity:1;fill:#ffffff;fill-opacity:1;stroke:none;stroke-width:30;stroke-linecap:butt;stroke-miterlimit:4;stroke-dasharray:none;stroke-dashoffset:0;stroke-opacity:1"
                    cx="458" cy="153.8622" id="circle4166" r="10" />
                <circle
                    style="opacity:1;fill:#ffffff;fill-opacity:1;stroke:none;stroke-width:30;stroke-linecap:butt;stroke-miterlimit:4;stroke-dasharray:none;stroke-dashoffset:0;stroke-opacity:1"
                    cx="498" cy="153.8622" id="circle4168" r="10" />
            </g>
        </g>
        <path
            style="fill:none;fill-rule:evenodd;stroke:none;stroke-width:1px;stroke-linecap:butt;stroke-linejoin:miter;stroke-opacity:1"
            clip-path="url(#clipPath4282)"
            d="m 281.78571,250.21935 13.75,-106.07143 L 390,205.75506 321.96429,272.18363 Z"
            id="path4187" inkscape:connector-curvature="0" />
        <path
            style="opacity:1;fill:#689f38;fill-opacity:1;stroke:none;stroke-width:30;stroke-linecap:butt;stroke-miterlimit:4;stroke-dasharray:none;stroke-dashoffset:0;stroke-opacity:1;"
            clip-path="url(#clipPath4278)"
            d="m 534.00781,141.36914 -49.24023,8.68164 0.4082,2.31055 -190.17578,0 0,75 171.45703,0 44.16406,44.16211 0.19141,0.19336 0.01,-0.008 a 25,25 0 0 0 22.00976,6.94922 25,25 0 0 0 20.2793,-28.96093 L 534.01,141.36896 l -0.002,0 z"
            id="path4159" inkscape:connector-curvature="0" />
        <path
            style="opacity:1;fill:#8bc34a;fill-opacity:1;stroke:none;stroke-width:30;stroke-linecap:butt;stroke-miterlimit:4;stroke-dasharray:none;stroke-dashoffset:0;stroke-opacity:1;filter:url(#filter4067)"
            clip-path="url(#clipPath4274)"
            d="m 355,92.361328 c -29.48242,0 -53.85001,21.058592 -58.98633,49.011722 l -0.0234,-0.004 -19.10156,108.32813 a 25,25 0 0 0 20.2793,28.96093 25,25 0 0 0 22.00976,-6.94922 l 0.008,0.008 0.1914,-0.19336 59.16407,-59.16211 96.45898,0 c 33.24,0 60,-26.76 60,-60 0,-33.24 -26.76,-60.000002 -60,-60.000002 l -120,0 z"
            id="path4161" inkscape:connector-curvature="0" />
        <g style="filter:url(#filter4067)" clip-path="url(#clipPath4270)" id="g4163">
            <path
                style="opacity:1;fill:#ffffff;fill-opacity:1;stroke:none;stroke-width:30;stroke-linecap:butt;stroke-miterlimit:4;stroke-dasharray:none;stroke-dashoffset:0;stroke-opacity:1"
                d="m 349,122.36133 0,24 -24,0 0,16 24,0 0,24 16,0 0,-24 24,0 0,-16 -24,0 0,-24 -16,0 z"
                id="path4165" inkscape:connector-curvature="0" />
            <g id="g4167">
                <circle
                    style="opacity:1;fill:#ffffff;fill-opacity:1;stroke:none;stroke-width:30;stroke-linecap:butt;stroke-miterlimit:4;stroke-dasharray:none;stroke-dashoffset:0;stroke-opacity:1"
                    cx="478" cy="174.3622" id="circle4169" r="10" />
                <circle
                    style="opacity:1;fill:#ffffff;fill-opacity:1;stroke:none;stroke-width:30;stroke-linecap:butt;stroke-miterlimit:4;stroke-dasharray:none;stroke-dashoffset:0;stroke-opacity:1"
                    cx="478" cy="132.3622" id="circle4171" r="10" />
                <circle
                    style="opacity:1;fill:#ffffff;fill-opacity:1;stroke:none;stroke-width:30;stroke-linecap:butt;stroke-miterlimit:4;stroke-dasharray:none;stroke-dashoffset:0;stroke-opacity:1"
                    cx="458" cy="153.8622" id="circle4173" r="10" />
                <circle
                    style="opacity:1;fill:#ffffff;fill-opacity:1;stroke:none;stroke-width:30;stroke-linecap:butt;stroke-miterlimit:4;stroke-dasharray:none;stroke-dashoffset:0;stroke-opacity:1"
                    cx="498" cy="153.8622" id="circle4175" r="10" />
            </g>
        </g>
        <path
            style="fill:none;fill-rule:evenodd;stroke:none;stroke-width:1px;stroke-linecap:butt;stroke-linejoin:miter;stroke-opacity:1"
            clip-path="url(#clipPath4266)"
            d="m 281.78571,250.21935 13.75,-106.07143 L 390,205.75506 321.96429,272.18363 Z"
            id="path4177" inkscape:connector-curvature="0" />
    </g>
</svg>
