<svg width="650" height="250" viewBox="0 0 650 250" fill="none" xmlns="http://www.w3.org/2000/svg">
<rect width="650" height="250" fill="white"/>
<path d="M179.127 110.873C186.924 118.703 186.924 131.331 179.127 139.161C175.229 143.059 175.229 149.39 179.127 153.255C183.026 157.187 189.356 157.187 193.255 153.255C208.915 137.661 208.915 112.339 193.255 96.7451L179.127 110.873Z" fill="#EA4335"/>
<path d="M193.255 96.7451C177.595 81.085 152.339 81.085 136.745 96.7451C121.085 112.339 121.085 137.661 136.745 153.255L150.873 139.161C143.076 131.331 143.076 118.703 150.873 110.873C158.703 103.076 171.331 103.076 179.161 110.873C183.059 114.771 189.39 114.771 193.288 110.873C197.153 106.974 197.153 100.643 193.222 96.7451H193.255Z" fill="#1A73E8"/>
<path d="M193.255 153.255L179.094 139.161C171.264 146.958 158.636 146.958 150.806 139.161L136.678 153.255C152.339 168.915 177.628 168.915 193.255 153.255Z" fill="#FBBC04"/>
<path d="M179.127 139.161C183.026 135.229 189.323 135.229 193.255 139.161C197.153 143.059 197.153 149.39 193.255 153.288C189.323 157.22 183.026 157.22 179.127 153.288C175.229 149.39 175.229 143.059 179.127 139.161Z" fill="#EA4335"/>
<path d="M136.745 139.161C140.644 135.229 146.941 135.229 150.839 139.161C154.771 143.059 154.771 149.39 150.839 153.288C146.941 157.22 140.644 157.22 136.745 153.288C132.813 149.39 132.813 143.059 136.745 139.161Z" fill="#34A853"/>
<path d="M348.279 179V170.147H350.112L352.673 176.413L355.364 170.147H357.08V179H355.494V173.072L353.167 178.597H352.218L349.865 173.111V179H348.279ZM361.027 179H359.389V170.147H361.027V179ZM366.716 179.195C365.507 179.195 364.558 178.805 363.882 178.012C363.206 177.219 362.868 176.101 362.868 174.658C362.868 173.176 363.206 172.019 363.895 171.187C364.584 170.368 365.546 169.952 366.781 169.952C367.34 169.952 367.808 170.03 368.211 170.173C368.614 170.329 369.03 170.576 369.485 170.927L368.692 172.162C368.341 171.889 368.029 171.694 367.769 171.59C367.496 171.499 367.184 171.447 366.833 171.447C366.092 171.447 365.52 171.72 365.117 172.279C364.714 172.838 364.519 173.605 364.519 174.593C364.519 175.594 364.727 176.374 365.13 176.907C365.533 177.44 366.092 177.713 366.82 177.713C367.171 177.713 367.509 177.661 367.834 177.544C368.159 177.427 368.484 177.245 368.822 176.985L369.615 178.22C369.16 178.571 368.718 178.831 368.263 178.974C367.808 179.117 367.288 179.195 366.716 179.195ZM372.73 179H371.105V170.147H374.03C375.031 170.147 375.824 170.368 376.396 170.823C376.968 171.278 377.254 171.941 377.254 172.812C377.254 174.034 376.708 174.853 375.629 175.282L377.644 179H375.954L374.108 175.555H373.991H372.73V179ZM372.73 171.512V174.19H373.991C374.524 174.19 374.927 174.073 375.2 173.852C375.473 173.631 375.603 173.306 375.603 172.89C375.603 172.435 375.473 172.097 375.2 171.863C374.927 171.629 374.524 171.512 373.991 171.512H372.73ZM382.663 179.195C381.844 179.195 381.142 179.013 380.557 178.636C379.959 178.259 379.504 177.726 379.179 177.037C378.854 176.348 378.698 175.529 378.698 174.58C378.698 173.618 378.854 172.786 379.179 172.097C379.504 171.408 379.959 170.888 380.557 170.511C381.142 170.134 381.844 169.952 382.663 169.952C383.469 169.952 384.171 170.134 384.769 170.511C385.354 170.888 385.809 171.408 386.134 172.097C386.446 172.786 386.602 173.618 386.602 174.58C386.602 175.529 386.446 176.348 386.134 177.037C385.809 177.726 385.354 178.259 384.769 178.636C384.171 179.013 383.469 179.195 382.663 179.195ZM380.973 176.868C381.376 177.427 381.935 177.7 382.663 177.7C383.391 177.7 383.95 177.427 384.353 176.868C384.756 176.322 384.951 175.555 384.951 174.58C384.951 173.605 384.756 172.825 384.353 172.266C383.95 171.707 383.391 171.434 382.663 171.434C381.935 171.434 381.376 171.707 380.973 172.266C380.57 172.825 380.362 173.605 380.362 174.58C380.362 175.555 380.57 176.322 380.973 176.868ZM391.881 179.208C390.594 179.208 389.606 178.805 388.917 177.999C388.228 177.206 387.89 176.088 387.89 174.658C387.89 173.683 388.046 172.851 388.358 172.149C388.67 171.447 389.125 170.901 389.736 170.524C390.334 170.147 391.062 169.952 391.92 169.952C392.453 169.952 392.947 170.004 393.428 170.121C393.896 170.238 394.39 170.446 394.91 170.745L394.117 171.98C393.714 171.772 393.324 171.629 392.973 171.551C392.622 171.473 392.271 171.434 391.933 171.434C391.153 171.434 390.555 171.707 390.152 172.253C389.749 172.812 389.541 173.592 389.541 174.593C389.541 175.607 389.736 176.374 390.139 176.907C390.542 177.44 391.153 177.713 391.972 177.713C392.219 177.713 392.453 177.7 392.674 177.674C392.895 177.648 393.155 177.596 393.441 177.531V175.425H391.933L392.375 174.086H394.936V178.493C394.611 178.74 394.156 178.909 393.597 179.026C393.038 179.143 392.466 179.208 391.881 179.208ZM402.655 179.208C402.083 179.208 401.563 179.13 401.082 178.961C400.601 178.792 400.159 178.558 399.73 178.246L400.276 176.907C400.705 177.18 401.082 177.375 401.433 177.505C401.784 177.648 402.148 177.713 402.525 177.713C402.98 177.713 403.357 177.622 403.656 177.427C403.942 177.232 404.085 176.959 404.085 176.582C404.085 176.205 403.916 175.893 403.578 175.672C403.227 175.451 402.772 175.217 402.187 174.97C401.459 174.645 400.913 174.281 400.536 173.891C400.159 173.501 399.977 172.994 399.977 172.37C399.977 171.603 400.25 171.005 400.783 170.576C401.316 170.147 402.018 169.939 402.876 169.939C403.357 169.939 403.799 170.004 404.215 170.134C404.618 170.277 405.047 170.485 405.476 170.771L404.878 172.032C404.553 171.863 404.241 171.72 403.942 171.603C403.643 171.486 403.305 171.434 402.902 171.434C402.499 171.434 402.187 171.512 401.966 171.668C401.745 171.837 401.641 172.084 401.641 172.409C401.641 172.617 401.693 172.799 401.797 172.942C401.888 173.085 402.057 173.228 402.304 173.371C402.551 173.514 402.889 173.683 403.318 173.878C403.799 174.099 404.228 174.32 404.592 174.554C404.956 174.801 405.242 175.074 405.437 175.399C405.632 175.724 405.736 176.14 405.736 176.621C405.736 177.193 405.606 177.674 405.346 178.051C405.086 178.428 404.722 178.714 404.267 178.909C403.799 179.104 403.266 179.208 402.655 179.208ZM409.013 177.453H412.913V179H407.388V170.147H412.913V171.694H409.013V173.774H412.393L411.938 175.204H409.013V177.453ZM416.212 179H414.587V170.147H417.512C418.513 170.147 419.306 170.368 419.878 170.823C420.45 171.278 420.736 171.941 420.736 172.812C420.736 174.034 420.19 174.853 419.111 175.282L421.126 179H419.436L417.59 175.555H417.473H416.212V179ZM416.212 171.512V174.19H417.473C418.006 174.19 418.409 174.073 418.682 173.852C418.955 173.631 419.085 173.306 419.085 172.89C419.085 172.435 418.955 172.097 418.682 171.863C418.409 171.629 418.006 171.512 417.473 171.512H416.212ZM426.482 179H424.857L421.815 170.147H423.557L425.715 176.868L427.886 170.147H429.511L426.482 179ZM432.603 179H430.965V170.147H432.603V179ZM438.292 179.195C437.083 179.195 436.134 178.805 435.458 178.012C434.782 177.219 434.444 176.101 434.444 174.658C434.444 173.176 434.782 172.019 435.471 171.187C436.16 170.368 437.122 169.952 438.357 169.952C438.916 169.952 439.384 170.03 439.787 170.173C440.19 170.329 440.606 170.576 441.061 170.927L440.268 172.162C439.917 171.889 439.605 171.694 439.345 171.59C439.072 171.499 438.76 171.447 438.409 171.447C437.668 171.447 437.096 171.72 436.693 172.279C436.29 172.838 436.095 173.605 436.095 174.593C436.095 175.594 436.303 176.374 436.706 176.907C437.109 177.44 437.668 177.713 438.396 177.713C438.747 177.713 439.085 177.661 439.41 177.544C439.735 177.427 440.06 177.245 440.398 176.985L441.191 178.22C440.736 178.571 440.294 178.831 439.839 178.974C439.384 179.117 438.864 179.195 438.292 179.195ZM444.294 177.453H448.194V179H442.669V170.147H448.194V171.694H444.294V173.774H447.674L447.219 175.204H444.294V177.453ZM452.103 179.208C451.531 179.208 451.011 179.13 450.53 178.961C450.049 178.792 449.607 178.558 449.178 178.246L449.724 176.907C450.153 177.18 450.53 177.375 450.881 177.505C451.232 177.648 451.596 177.713 451.973 177.713C452.428 177.713 452.805 177.622 453.104 177.427C453.39 177.232 453.533 176.959 453.533 176.582C453.533 176.205 453.364 175.893 453.026 175.672C452.675 175.451 452.22 175.217 451.635 174.97C450.907 174.645 450.361 174.281 449.984 173.891C449.607 173.501 449.425 172.994 449.425 172.37C449.425 171.603 449.698 171.005 450.231 170.576C450.764 170.147 451.466 169.939 452.324 169.939C452.805 169.939 453.247 170.004 453.663 170.134C454.066 170.277 454.495 170.485 454.924 170.771L454.326 172.032C454.001 171.863 453.689 171.72 453.39 171.603C453.091 171.486 452.753 171.434 452.35 171.434C451.947 171.434 451.635 171.512 451.414 171.668C451.193 171.837 451.089 172.084 451.089 172.409C451.089 172.617 451.141 172.799 451.245 172.942C451.336 173.085 451.505 173.228 451.752 173.371C451.999 173.514 452.337 173.683 452.766 173.878C453.247 174.099 453.676 174.32 454.04 174.554C454.404 174.801 454.69 175.074 454.885 175.399C455.08 175.724 455.184 176.14 455.184 176.621C455.184 177.193 455.054 177.674 454.794 178.051C454.534 178.428 454.17 178.714 453.715 178.909C453.247 179.104 452.714 179.208 452.103 179.208ZM461.978 179H460.353V170.147H463.278C464.279 170.147 465.072 170.368 465.644 170.823C466.216 171.278 466.502 171.941 466.502 172.812C466.502 174.034 465.956 174.853 464.877 175.282L466.892 179H465.202L463.356 175.555H463.239H461.978V179ZM461.978 171.512V174.19H463.239C463.772 174.19 464.175 174.073 464.448 173.852C464.721 173.631 464.851 173.306 464.851 172.89C464.851 172.435 464.721 172.097 464.448 171.863C464.175 171.629 463.772 171.512 463.239 171.512H461.978ZM470.065 177.453H473.965V179H468.44V170.147H473.965V171.694H470.065V173.774H473.445L472.99 175.204H470.065V177.453ZM475.652 170.147H478.317C479.604 170.147 480.592 170.498 481.281 171.213C481.957 171.928 482.295 173.046 482.295 174.554C482.295 176.101 481.944 177.219 481.255 177.934C480.553 178.649 479.578 179 478.317 179H475.652V170.147ZM477.277 177.505H478.33C478.577 177.505 478.837 177.479 479.11 177.414C479.37 177.349 479.617 177.219 479.851 177.024C480.085 176.829 480.28 176.543 480.423 176.153C480.566 175.763 480.644 175.243 480.644 174.593C480.644 173.943 480.579 173.423 480.436 173.033C480.293 172.643 480.111 172.344 479.89 172.136C479.669 171.941 479.422 171.798 479.162 171.733C478.889 171.668 478.629 171.629 478.356 171.629H477.277V177.505ZM485.706 177.453H489.606V179H484.081V170.147H489.606V171.694H485.706V173.774H489.086L488.631 175.204H485.706V177.453ZM493.515 179.208C492.943 179.208 492.423 179.13 491.942 178.961C491.461 178.792 491.019 178.558 490.59 178.246L491.136 176.907C491.565 177.18 491.942 177.375 492.293 177.505C492.644 177.648 493.008 177.713 493.385 177.713C493.84 177.713 494.217 177.622 494.516 177.427C494.802 177.232 494.945 176.959 494.945 176.582C494.945 176.205 494.776 175.893 494.438 175.672C494.087 175.451 493.632 175.217 493.047 174.97C492.319 174.645 491.773 174.281 491.396 173.891C491.019 173.501 490.837 172.994 490.837 172.37C490.837 171.603 491.11 171.005 491.643 170.576C492.176 170.147 492.878 169.939 493.736 169.939C494.217 169.939 494.659 170.004 495.075 170.134C495.478 170.277 495.907 170.485 496.336 170.771L495.738 172.032C495.413 171.863 495.101 171.72 494.802 171.603C494.503 171.486 494.165 171.434 493.762 171.434C493.359 171.434 493.047 171.512 492.826 171.668C492.605 171.837 492.501 172.084 492.501 172.409C492.501 172.617 492.553 172.799 492.657 172.942C492.748 173.085 492.917 173.228 493.164 173.371C493.411 173.514 493.749 173.683 494.178 173.878C494.659 174.099 495.088 174.32 495.452 174.554C495.816 174.801 496.102 175.074 496.297 175.399C496.492 175.724 496.596 176.14 496.596 176.621C496.596 177.193 496.466 177.674 496.206 178.051C495.946 178.428 495.582 178.714 495.127 178.909C494.659 179.104 494.126 179.208 493.515 179.208ZM499.939 179H498.301V170.147H499.939V179ZM505.758 179.208C504.471 179.208 503.483 178.805 502.794 177.999C502.105 177.206 501.767 176.088 501.767 174.658C501.767 173.683 501.923 172.851 502.235 172.149C502.547 171.447 503.002 170.901 503.613 170.524C504.211 170.147 504.939 169.952 505.797 169.952C506.33 169.952 506.824 170.004 507.305 170.121C507.773 170.238 508.267 170.446 508.787 170.745L507.994 171.98C507.591 171.772 507.201 171.629 506.85 171.551C506.499 171.473 506.148 171.434 505.81 171.434C505.03 171.434 504.432 171.707 504.029 172.253C503.626 172.812 503.418 173.592 503.418 174.593C503.418 175.607 503.613 176.374 504.016 176.907C504.419 177.44 505.03 177.713 505.849 177.713C506.096 177.713 506.33 177.7 506.551 177.674C506.772 177.648 507.032 177.596 507.318 177.531V175.425H505.81L506.252 174.086H508.813V178.493C508.488 178.74 508.033 178.909 507.474 179.026C506.915 179.143 506.343 179.208 505.758 179.208ZM510.766 179V170.147H512.326L516.135 176.309V170.147H517.734V179H516.2L512.378 172.773V179H510.766Z" fill="black" fill-opacity="0.6"/>
<path d="M232.805 158V92.624H246.341L265.253 138.896L285.125 92.624H297.797V158H286.085V114.224L268.901 155.024H261.893L244.517 114.512V158H232.805ZM324.733 158H313.501V113.36H324.733V158ZM324.061 103.28C322.813 104.528 321.181 105.2 319.165 105.2C317.149 105.2 315.517 104.528 314.269 103.28C313.021 102.032 312.349 100.4 312.349 98.384C312.349 96.464 313.021 94.832 314.365 93.488C315.613 92.24 317.245 91.568 319.165 91.568C321.085 91.568 322.717 92.24 324.061 93.488C325.309 94.832 325.981 96.464 325.981 98.288C325.981 100.304 325.309 102.032 324.061 103.28ZM357.424 159.44C350.224 159.44 344.848 157.328 341.2 153.104C337.456 148.976 335.632 143.12 335.632 135.728C335.632 128.432 337.36 122.672 340.912 118.352C344.464 114.032 349.744 111.92 356.944 111.92C359.92 111.92 362.704 112.304 365.2 113.072C367.696 113.936 370.192 115.376 372.688 117.488L366.928 125.264C365.296 123.92 363.76 122.96 362.32 122.384C360.88 121.808 359.344 121.52 357.712 121.52C354.064 121.52 351.376 122.864 349.552 125.456C347.728 128.144 346.864 131.6 346.864 135.728C346.864 145.136 350.512 149.84 357.712 149.84C359.536 149.84 361.264 149.552 362.896 148.88C364.528 148.208 366.16 147.152 367.6 145.712L373.744 152.528C371.536 155.024 369.136 156.752 366.544 157.808C363.856 158.864 360.784 159.44 357.424 159.44ZM394.001 158H382.577V113.36H392.849V120.944C394.289 118.352 396.305 116.432 398.993 114.992C401.585 113.552 404.465 112.88 407.537 112.88H409.649V123.632H406.097C402.353 123.632 399.377 124.88 397.265 127.472C395.057 130.064 394.001 133.52 394.001 137.84V158ZM436.723 159.44C429.907 159.44 424.723 157.328 421.075 153.2C417.331 149.072 415.507 143.216 415.507 135.632C415.507 128.144 417.331 122.288 421.075 118.16C424.723 114.032 429.907 111.92 436.723 111.92C443.443 111.92 448.627 114.032 452.371 118.16C456.115 122.288 457.939 128.144 457.939 135.632C457.939 143.216 456.115 149.072 452.371 153.2C448.627 157.328 443.443 159.44 436.723 159.44ZM429.331 146.192C431.059 148.592 433.555 149.84 436.723 149.84C439.891 149.84 442.387 148.592 444.115 146.192C445.843 143.792 446.707 140.24 446.707 135.632C446.707 131.312 445.843 127.856 444.115 125.264C442.387 122.768 439.891 121.52 436.723 121.52C433.555 121.52 431.059 122.768 429.331 125.264C427.603 127.856 426.739 131.312 426.739 135.632C426.739 140.24 427.603 143.792 429.331 146.192ZM495.819 159.536C486.315 159.536 479.019 156.56 473.931 150.608C468.843 144.752 466.347 136.496 466.347 125.936C466.347 118.736 467.499 112.592 469.803 107.408C472.107 102.224 475.467 98.192 479.979 95.408C484.395 92.624 489.771 91.184 496.107 91.184C500.043 91.184 503.691 91.568 507.243 92.432C510.699 93.296 514.347 94.832 518.187 97.04L512.331 106.16C509.355 104.624 506.475 103.568 503.883 102.992C501.291 102.416 498.699 102.128 496.203 102.128C490.443 102.128 486.027 104.144 483.051 108.176C480.075 112.304 478.539 118.064 478.539 125.456C478.539 132.944 479.979 138.608 482.955 142.544C485.931 146.48 490.443 148.496 496.491 148.496C498.315 148.496 500.043 148.4 501.675 148.208C503.307 148.016 505.227 147.632 507.339 147.152V131.6H496.203L499.467 121.712H518.379V154.256C515.979 156.08 512.619 157.328 508.491 158.192C504.363 159.056 500.139 159.536 495.819 159.536Z" fill="black"/>
</svg>
