<svg fill="none" height="577" viewBox="0 0 1500 577" width="1500"
    xmlns="http://www.w3.org/2000/svg">
    <rect fill="white" height="576.922" width="1500" />
    <path
        d="M393.532 252.784C413.055 272.39 413.055 304.01 393.532 323.616C383.771 333.377 383.771 349.229 393.532 358.907C403.294 368.751 419.145 368.751 428.907 358.907C468.119 319.861 468.119 256.454 428.907 217.409L393.532 252.784Z"
        fill="#EA4335" />
    <path
        d="M428.907 217.409C389.694 178.197 326.454 178.197 287.409 217.409C248.197 256.454 248.197 319.861 287.409 358.907L322.784 323.616C303.261 304.01 303.261 272.39 322.784 252.784C342.39 233.261 374.01 233.261 393.616 252.784C403.377 262.545 419.229 262.545 428.99 252.784C438.668 243.022 438.668 227.17 428.823 217.409H428.907Z"
        fill="#1A73E8" />
    <path
        d="M428.907 358.907L393.449 323.616C373.843 343.138 342.223 343.138 322.617 323.616L287.242 358.907C326.454 398.119 389.778 398.119 428.907 358.907Z"
        fill="#FBBC04" />
    <path
        d="M393.532 323.616C403.294 313.771 419.062 313.771 428.907 323.616C438.668 333.377 438.668 349.229 428.907 358.99C419.062 368.835 403.294 368.835 393.532 358.99C383.771 349.229 383.771 333.377 393.532 323.616Z"
        fill="#EA4335" />
    <path
        d="M287.409 323.616C297.17 313.771 312.939 313.771 322.7 323.616C332.545 333.377 332.545 349.229 322.7 358.99C312.939 368.835 297.17 368.835 287.409 358.99C277.564 349.229 277.564 333.377 287.409 323.616Z"
        fill="#34A853" />
    <path
        d="M527.938 370.788V207.09H561.831L609.186 322.952L658.945 207.09H690.675V370.788H661.348V261.175L618.321 363.336H600.773L557.264 261.896V370.788H527.938Z"
        fill="black" />
    <path
        d="M758.122 370.788H729.997V259.012H758.122V370.788ZM756.439 233.772C753.314 236.897 749.228 238.579 744.18 238.579C739.132 238.579 735.045 236.897 731.92 233.772C728.795 230.647 727.113 226.561 727.113 221.513C727.113 216.705 728.795 212.619 732.161 209.253C735.286 206.128 739.372 204.446 744.18 204.446C748.987 204.446 753.074 206.128 756.439 209.253C759.564 212.619 761.247 216.705 761.247 221.272C761.247 226.32 759.564 230.647 756.439 233.772Z"
        fill="black" />
    <path
        d="M839.978 374.394C821.95 374.394 808.488 369.105 799.354 358.529C789.979 348.192 785.412 333.529 785.412 315.02C785.412 296.751 789.739 282.328 798.633 271.511C807.527 260.694 820.748 255.406 838.776 255.406C846.228 255.406 853.199 256.368 859.449 258.291C865.699 260.454 871.949 264.06 878.198 269.348L863.776 288.819C859.689 285.453 855.843 283.05 852.237 281.607C848.632 280.165 844.786 279.444 840.699 279.444C831.565 279.444 824.834 282.809 820.267 289.299C815.7 296.03 813.536 304.684 813.536 315.02C813.536 338.577 822.671 350.356 840.699 350.356C845.266 350.356 849.593 349.635 853.68 347.952C857.766 346.269 861.853 343.625 865.458 340.019L880.843 357.086C875.314 363.336 869.304 367.663 862.814 370.307C856.084 372.951 848.391 374.394 839.978 374.394Z"
        fill="black" />
    <path
        d="M931.564 370.788H902.959V259.012H928.68V278.002C932.286 271.511 937.334 266.704 944.064 263.098C950.554 259.492 957.766 257.81 965.458 257.81H970.746V284.732H961.852C952.477 284.732 945.026 287.857 939.737 294.347C934.209 300.838 931.564 309.491 931.564 320.308V370.788Z"
        fill="black" />
    <path
        d="M1038.54 374.394C1021.47 374.394 1008.49 369.105 999.357 358.769C989.982 348.433 985.415 333.769 985.415 314.78C985.415 296.03 989.982 281.367 999.357 271.031C1008.49 260.694 1021.47 255.406 1038.54 255.406C1055.37 255.406 1068.35 260.694 1077.72 271.031C1087.1 281.367 1091.66 296.03 1091.66 314.78C1091.66 333.769 1087.1 348.433 1077.72 358.769C1068.35 369.105 1055.37 374.394 1038.54 374.394ZM1020.03 341.221C1024.36 347.231 1030.61 350.356 1038.54 350.356C1046.47 350.356 1052.72 347.231 1057.05 341.221C1061.37 335.212 1063.54 326.318 1063.54 314.78C1063.54 303.963 1061.37 295.309 1057.05 288.819C1052.72 282.569 1046.47 279.444 1038.54 279.444C1030.61 279.444 1024.36 282.569 1020.03 288.819C1015.7 295.309 1013.54 303.963 1013.54 314.78C1013.54 326.318 1015.7 335.212 1020.03 341.221Z"
        fill="black" />
    <path
        d="M1186.51 374.634C1162.71 374.634 1144.44 367.182 1131.7 352.279C1118.96 337.616 1112.71 316.943 1112.71 290.501C1112.71 272.473 1115.6 257.089 1121.37 244.108C1127.14 231.128 1135.55 221.032 1146.85 214.061C1157.91 207.09 1171.37 203.484 1187.23 203.484C1197.09 203.484 1206.22 204.446 1215.12 206.609C1223.77 208.772 1232.9 212.619 1242.52 218.147L1227.86 240.983C1220.4 237.137 1213.19 234.493 1206.7 233.051C1200.21 231.608 1193.72 230.887 1187.47 230.887C1173.05 230.887 1161.99 235.935 1154.54 246.031C1147.09 256.367 1143.24 270.79 1143.24 289.299C1143.24 308.049 1146.85 322.231 1154.3 332.087C1161.75 341.942 1173.05 346.99 1188.19 346.99C1192.76 346.99 1197.09 346.75 1201.17 346.269C1205.26 345.788 1210.07 344.827 1215.36 343.625V304.684H1187.47L1195.65 279.925H1243V361.413C1236.99 365.98 1228.58 369.105 1218.24 371.269C1207.9 373.432 1197.33 374.634 1186.51 374.634Z"
        fill="black" />
</svg>
